<svg id="Layer_1" data-name="Layer 1" xmlns="http://www.w3.org/2000/svg" viewBox="0 0 34.31 46.41"><defs><style>.cls-1{fill:#fff;}</style></defs><path class="cls-1" d="M19.83,125.36a1.18,1.18,0,0,1-.54-.16,1.08,1.08,0,0,1-.58-1,5.38,5.38,0,0,1,.33-1.5q.34-1.16,1.92-5.06-.33-9.69-.77-18.64l-.08-1.47c-.25-5.54-.47-9.39-.67-11.58a4,4,0,0,0-.31-1.43,1.85,1.85,0,0,1-.2-.87c0-.41,0-1.06,0-2A4.85,4.85,0,0,1,19,80.41a.72.72,0,0,1,.71-.47H20c.42,0,.75.52,1,1.43a10.26,10.26,0,0,1,.3,2.6,1.17,1.17,0,0,1-.21.66.87.87,0,0,0-.18.31,4.76,4.76,0,0,0-.06,1l.07,3.24c0,.48.07,1.18.1,2.08l.21,5.23q.12,4,.28,7.47l.12,3c.15,5.61.25,8.45.28,8.53s.44-.74,1.15-2q6.22-12.1,18.56-24.65,2.17-2.2,7.41-7a11.07,11.07,0,0,0,1.89-2A1.46,1.46,0,0,1,52.18,79a.76.76,0,0,1,.84.87,1.2,1.2,0,0,1-1.33,1.34,1.3,1.3,0,0,0-.8.23,20.56,20.56,0,0,0-1.76,1.48,122.88,122.88,0,0,0-15.28,16A81.08,81.08,0,0,0,23.77,115a20.42,20.42,0,0,0-.89,2.15,5.27,5.27,0,0,0-.12,1.25v.44a12.5,12.5,0,0,1-.82,4.55,1.64,1.64,0,0,0-.11.35,2.3,2.3,0,0,1-.54.82A2.07,2.07,0,0,1,19.83,125.36Z" transform="translate(-18.71 -78.95)"/></svg>