<?xml version="1.0" encoding="utf-8"?>
<?xml-stylesheet type="text/css" href="../style.css"?>
<svg xmlns="http://www.w3.org/2000/svg" id="vmPath" viewBox="0 0 183.5 59.82"><defs><style>.cls-1{font-size:50px;fill:#fdfefe;font-family:SouthamDemo, Southam Demo;}.cls-2{letter-spacing:0em;}</style></defs><g id="Layer_2" data-name="Layer 2"><g id="Layer_1-2" data-name="Layer 1"><text class="cls-1" transform="translate(0 45.13)">Varun Malhot<tspan class="cls-2" x="152.47" y="0">r</tspan><tspan x="165.23" y="0">a</tspan></text></g></g>
<g>
<circle class="randomCircle" cx="0" cy="0" r="0"></circle>
<circle class="randomCircle" cx="0" cy="0" r="0"></circle>
<circle class="randomCircle" cx="0" cy="0" r="0"></circle>
<circle class="randomCircle" cx="0" cy="0" r="0"></circle>
<circle class="randomCircle" cx="0" cy="0" r="0"></circle>
<circle class="randomCircle" cx="0" cy="0" r="0"></circle>
<circle class="randomCircle" cx="0" cy="0" r="0"></circle>
<circle class="randomCircle" cx="0" cy="0" r="0"></circle>
<circle class="randomCircle" cx="0" cy="0" r="0"></circle>
<circle class="randomCircle" cx="0" cy="0" r="0"></circle>
<circle class="randomCircle" cx="0" cy="0" r="0"></circle>
<circle class="randomCircle" cx="0" cy="0" r="0"></circle>
<circle class="randomCircle" cx="0" cy="0" r="0"></circle>
<circle class="randomCircle" cx="0" cy="0" r="0"></circle>
<circle class="randomCircle" cx="0" cy="0" r="0"></circle>
<circle class="randomCircle" cx="0" cy="0" r="0"></circle>
<circle class="randomCircle" cx="0" cy="0" r="0"></circle>
<circle class="randomCircle" cx="0" cy="0" r="0"></circle>
<circle class="randomCircle" cx="0" cy="0" r="0"></circle>
<circle class="randomCircle" cx="0" cy="0" r="0"></circle>
</g>

</svg>
