<svg id="Layer_1" data-name="Layer 1" xmlns="http://www.w3.org/2000/svg" viewBox="0 0 171.28 48.35"><defs><style>.cls-1{fill:#fdfefe;}</style></defs><path class="cls-1" d="M19.83,125.36a1.18,1.18,0,0,1-.54-.16,1.08,1.08,0,0,1-.58-1,5.38,5.38,0,0,1,.33-1.5q.34-1.16,1.92-5.06-.33-9.69-.77-18.64l-.08-1.47c-.25-5.54-.47-9.39-.67-11.58a4,4,0,0,0-.31-1.43,1.85,1.85,0,0,1-.2-.87c0-.41,0-1.06,0-2A4.85,4.85,0,0,1,19,80.41a.72.72,0,0,1,.71-.47H20c.42,0,.75.52,1,1.43a10.26,10.26,0,0,1,.3,2.6,1.17,1.17,0,0,1-.21.66.87.87,0,0,0-.18.31,4.76,4.76,0,0,0-.06,1l.07,3.24c0,.48.07,1.18.1,2.08l.21,5.23q.12,4,.28,7.47l.12,3c.15,5.61.25,8.45.28,8.53s.44-.74,1.15-2q6.22-12.1,18.56-24.65,2.17-2.2,7.41-7a11.07,11.07,0,0,0,1.89-2A1.46,1.46,0,0,1,52.18,79a.76.76,0,0,1,.84.87,1.2,1.2,0,0,1-1.33,1.34,1.3,1.3,0,0,0-.8.23,20.56,20.56,0,0,0-1.76,1.48,122.88,122.88,0,0,0-15.28,16A81.08,81.08,0,0,0,23.77,115a20.42,20.42,0,0,0-.89,2.15,5.27,5.27,0,0,0-.12,1.25v.44a12.5,12.5,0,0,1-.82,4.55,1.64,1.64,0,0,0-.11.35,2.3,2.3,0,0,1-.54.82A2.07,2.07,0,0,1,19.83,125.36Z" transform="translate(-18.71 -78.83)"/><path class="cls-1" d="M38.09,110.1a1.53,1.53,0,0,1-.68-.12,2,2,0,0,1-1-2,10.74,10.74,0,0,1,.47-2.79v0s0,0,0,0a8.8,8.8,0,0,0-.91.77c-1.33,1.19-2.35,1.78-3.05,1.78a.94.94,0,0,1-.89-.63,2,2,0,0,1-.12-.7,4,4,0,0,1,1-2.3,5,5,0,0,1,3.71-2,2.06,2.06,0,0,1,1.83.91.83.83,0,0,1,.09.43,1.8,1.8,0,0,1-.28,1.14,3.6,3.6,0,0,0-.52,1.11,8.86,8.86,0,0,0-.47,2.46,1.45,1.45,0,0,0,.33,1,.73.73,0,0,0,.56.29q1.11,0,4-2.25a9.26,9.26,0,0,0,1.47-1.4,1.81,1.81,0,0,0,.42-1.1.88.88,0,0,1,.29-.76.88.88,0,0,1,.53-.21.65.65,0,0,1,.64.44,1.79,1.79,0,0,1,.09.54,1.14,1.14,0,0,1-.47,1.06,7.2,7.2,0,0,0-1.12.89,32,32,0,0,1-2.84,2.21A8.42,8.42,0,0,1,39,110,2.91,2.91,0,0,1,38.09,110.1Zm-5.15-3.28c.34,0,1-.41,1.89-1.22a6.14,6.14,0,0,0,1.41-1.52,1.19,1.19,0,0,0,.07-.47.37.37,0,0,0-.42-.42,2.17,2.17,0,0,0-1.06.42A4.8,4.8,0,0,0,33,105.67a2.54,2.54,0,0,0-.26.89C32.72,106.73,32.79,106.82,32.94,106.82Z" transform="translate(-18.71 -78.83)"/><path class="cls-1" d="M48.71,112.09a1.68,1.68,0,0,1-1.45-.65,3.8,3.8,0,0,1-.4-2.11l0-1.06a4.87,4.87,0,0,0-.32-2.08,2.32,2.32,0,0,0-1.58-.94c-.9-.27-1.36-.76-1.36-1.48a2.88,2.88,0,0,1,.14-.82,2.73,2.73,0,0,1,.89-1.33,1.51,1.51,0,0,1,.89-.33,1,1,0,0,1,.36,0,1.38,1.38,0,0,1,.93,1.47,2.77,2.77,0,0,1-.14.94,5.14,5.14,0,0,0-.16.91.51.51,0,0,0,.33.47,2.15,2.15,0,0,1,.72,1.15,20,20,0,0,1,.12,2.2,8.72,8.72,0,0,0,.21,2.37.77.77,0,0,0,.75.38,4.06,4.06,0,0,0,2.18-1,19.29,19.29,0,0,0,3.42-3.32,6.9,6.9,0,0,0,1.62-3,2.76,2.76,0,0,1,.23-.75c.21-.46.48-.7.83-.7a.86.86,0,0,1,.35.09,1,1,0,0,1,.47.9s0,.19,0,.43a1.34,1.34,0,0,1-.58.83,3.73,3.73,0,0,0-.78.92A20.8,20.8,0,0,1,52,110.36C50.6,111.52,49.49,112.09,48.71,112.09Zm-4-8.13c.16,0,.35-.2.59-.61a1.93,1.93,0,0,0,.21-.72c0-.13,0-.19-.1-.19s-.23.09-.37.28a2.34,2.34,0,0,0-.32.57,1.51,1.51,0,0,0-.1.48C44.61,103.9,44.64,104,44.7,104Z" transform="translate(-18.71 -78.83)"/><path class="cls-1" d="M55.62,112.09h-.11a.85.85,0,0,1-.68-.28,1.8,1.8,0,0,1-.38-1.24l0-.82a10.49,10.49,0,0,1,.8-2.93,9.42,9.42,0,0,1,1.38-2.74,1.15,1.15,0,0,1,.73-.21c.48,0,.73.29.75.89,0,.4-.32.83-1,1.26a1.89,1.89,0,0,0-.42.36,5,5,0,0,0-.89,2,8.11,8.11,0,0,0-.28,2c0,.4.07.61.23.61s1.5-1,3.56-3.1c.74-.72,1.32-1.27,1.74-1.66a7.86,7.86,0,0,1,1-.8,1.09,1.09,0,0,1,.54-.21.59.59,0,0,1,.55.32,3.07,3.07,0,0,1,.24,1.11,4.3,4.3,0,0,0,.17,1c.08.21.27.31.58.31a4.4,4.4,0,0,0,1.8-.57,9.23,9.23,0,0,0,2.19-1.58q.51-.53.51-.78a1.23,1.23,0,0,1,.33-.82,1,1,0,0,1,.73-.37,1.25,1.25,0,0,1,.62.16.53.53,0,0,1,.29.47,2.19,2.19,0,0,1-1,1.5,14.05,14.05,0,0,1-2.21,1.51,19.87,19.87,0,0,1-1.83.93,4.86,4.86,0,0,1-1.78.42,1.19,1.19,0,0,1-1.11-.63,2.23,2.23,0,0,1-.3-1.18c0-.37-.06-.57-.19-.6s-.94.82-2.62,2.48c-.88.86-1.56,1.52-2,2A4,4,0,0,1,55.62,112.09Z" transform="translate(-18.71 -78.83)"/><path class="cls-1" d="M67.15,111.91c-.21-.21-.12-.86.29-2,.29-.86.53-1.55.72-2.08s.33-.94.41-1.22a3.2,3.2,0,0,0,.15-.61.4.4,0,0,0,0-.26,1.65,1.65,0,0,1,.16-1.35,1.11,1.11,0,0,1,1-.64.79.79,0,0,1,.78.45,1.68,1.68,0,0,1,.13,1,2,2,0,0,1-.51,1,3.09,3.09,0,0,0-.25.31.4.4,0,0,0-.1.18,4.1,4.1,0,0,1-.18.43l-.43,1-.4.91c-.11.25-.17.38-.17.4a1.32,1.32,0,0,0,.24-.22c.14-.15.31-.34.51-.58q.66-.72,1.68-1.71c.68-.65,1.3-1.21,1.86-1.66a8.7,8.7,0,0,1,1.36-.91,1.77,1.77,0,0,1,1-.26q.92.14,1.26,1.92c.28,1.5.69,2.34,1.22,2.54s1.45-.06,2.74-.76a20.69,20.69,0,0,0,2.9-1.83,6.75,6.75,0,0,0,1.7-1.73c.31-.63.71-.94,1.19-.94a.73.73,0,0,1,.71.4,1.21,1.21,0,0,1,.11.86,1.08,1.08,0,0,1-.54.75l-.39.25-.57.36q-5.88,3.65-7.57,3.64a2,2,0,0,1-1.4-.59,5.07,5.07,0,0,1-1.06-2.46c-.22-1-.41-1.43-.58-1.43a2.33,2.33,0,0,0-.74.41q-.6.41-1.23.9a24.5,24.5,0,0,0-1.91,1.8c-.71.72-1.39,1.46-2,2.21-.31.39-.59.72-.83,1a2.67,2.67,0,0,1-.46.45.65.65,0,0,1-.41.1A.53.53,0,0,1,67.15,111.91Z" transform="translate(-18.71 -78.83)"/><path class="cls-1" d="M90.52,119.55q.21-.4.69-1.47l1.05-2.33a229.14,229.14,0,0,1,14.48-27.66,20.65,20.65,0,0,1,1.41-2c.29-.36.55-.53.77-.53.5,0,.68.55.54,1.64,0,.2-.1.61-.19,1.23s-.26,1.61-.49,3-.56,3.27-1,5.7-1,5.73-1.9,9.82a54.4,54.4,0,0,0-1.48,9.29,5.09,5.09,0,0,0,0,.58,1.77,1.77,0,0,0,0,.31s.14,0,.27-.19a7.58,7.58,0,0,0,.62-.92c.28-.45.67-1.11,1.16-2s1.12-2,1.89-3.37q6-11,9.49-16.06a103.66,103.66,0,0,1,11.25-14A10,10,0,0,1,131,79a.75.75,0,0,1,1,.07c.37.26.41,1.11.12,2.53-.16.73-.37,1.51-.63,2.32s-.68,2-1.27,3.51a184.75,184.75,0,0,0-7,21.64A95.17,95.17,0,0,0,121,122.34a.13.13,0,0,0,0,.07c0,.48-.08.86-.09,1.13a4.36,4.36,0,0,0,0,.61.4.4,0,0,0,.07.27.44.44,0,0,0,.15.12s0,0,0,0a.93.93,0,0,1,.52.68,1.83,1.83,0,0,1-.14,1,1.7,1.7,0,0,1-.81.84.69.69,0,0,1-.83-.18c-.27-.28-.34-.91-.21-1.9,0-.22.09-.58.15-1.1s.12-1.05.2-1.62a121.4,121.4,0,0,1,3.84-19q.9-3,2.4-7.54t3.06-8.7c.22-.6.44-1.2.66-1.82s.39-1.11.51-1.47.26-.92.39-1.45.24-1,.32-1.4a1.82,1.82,0,0,0,.07-.68,0,0,0,0,0,0,0,.05.05,0,0,0,0,0,.23.23,0,0,0-.08.07l-.17.12-.26.23-.36.34-.49.48q-1.32,1.26-3.46,3.74t-4.09,5q-5.72,7.39-13.4,21.65-1.53,2.82-2.42,4.27A7.77,7.77,0,0,1,105,118a.75.75,0,0,1-.95.14.8.8,0,0,1-.38-.57,6.49,6.49,0,0,1-.08-1.51,19.81,19.81,0,0,1,.34-3.55q.36-2.23,1.34-7c.46-2.23.81-4,1.07-5.39s.54-2.93.85-4.73c.16-.94.32-1.88.5-2.84s.28-1.66.37-2.18a18.56,18.56,0,0,0,.49-3.44,6.8,6.8,0,0,0-.65,1c-.41.63-.87,1.36-1.37,2.18s-1,1.54-1.33,2.17q-3.5,5.92-7.71,14.64-1.64,3.38-2.6,5.48t-2.06,4.74c-.64,1.52-1.15,2.67-1.51,3.45a8.06,8.06,0,0,1-.89,1.56,1,1,0,0,1-.67.38.74.74,0,0,1-.61-.28,1.19,1.19,0,0,1-.35-.64,9,9,0,0,1-.21-1.4,18.41,18.41,0,0,1,.09-3.7,9.89,9.89,0,0,1,.52-2l.09-.28c.39-.83.88-1.23,1.46-1.21s.94.44,1.05,1.26a2.6,2.6,0,0,1,0,.65,6.79,6.79,0,0,1-.24.8,17.59,17.59,0,0,1-1.27,2.67,2.21,2.21,0,0,0-.19,1.69q0,.14.06.15s.07,0,.13-.15S90.4,119.81,90.52,119.55Z" transform="translate(-18.71 -78.83)"/><path class="cls-1" d="M132.08,110.1a1.5,1.5,0,0,1-.68-.12,2,2,0,0,1-1-2,11.18,11.18,0,0,1,.47-2.79v0s0,0,0,0a8.16,8.16,0,0,0-.92.77c-1.33,1.19-2.34,1.78-3,1.78a.94.94,0,0,1-.9-.63,2.28,2.28,0,0,1-.11-.7,4,4,0,0,1,1-2.3,5,5,0,0,1,3.7-2,2.06,2.06,0,0,1,1.83.91.83.83,0,0,1,.09.43,1.8,1.8,0,0,1-.28,1.14,3.4,3.4,0,0,0-.51,1.11,8.51,8.51,0,0,0-.47,2.46,1.45,1.45,0,0,0,.33,1,.7.7,0,0,0,.56.29q1.1,0,4-2.25a9.9,9.9,0,0,0,1.48-1.4,1.81,1.81,0,0,0,.42-1.1.88.88,0,0,1,.28-.76.92.92,0,0,1,.54-.21.63.63,0,0,1,.63.44,1.79,1.79,0,0,1,.09.54,1.14,1.14,0,0,1-.46,1.06,7,7,0,0,0-1.13.89,31.88,31.88,0,0,1-2.83,2.21A8.78,8.78,0,0,1,133,110,3,3,0,0,1,132.08,110.1Zm-5.16-3.28c.34,0,1-.41,1.9-1.22a6.24,6.24,0,0,0,1.4-1.52,1.19,1.19,0,0,0,.07-.47.37.37,0,0,0-.42-.42,2.14,2.14,0,0,0-1.05.42,4.74,4.74,0,0,0-1.85,2.06,2.34,2.34,0,0,0-.26.89C126.71,106.73,126.78,106.82,126.92,106.82Z" transform="translate(-18.71 -78.83)"/><path class="cls-1" d="M139.22,101.69l.75-1.75q.42-1,.78-1.77l.11-.3.8-1.88-.21-.28a1.28,1.28,0,0,1,.14-1.8c.75-.8,1.41-.91,2-.33a.72.72,0,0,1,.22.49,2.2,2.2,0,0,1-.2.82c-.14.36-.37.86-.7,1.5q-1.45,2.88-3.19,6.72c-1.15,2.55-2.19,5.13-3.1,7.73a31.14,31.14,0,0,0-1.7,7l-.12,1.1.45.47a3.11,3.11,0,0,1,.34.44.93.93,0,0,1,.08.41,1,1,0,0,1-.4.88,1.06,1.06,0,0,1-1,.08c-.63-.27-.94-.93-.94-2a21.13,21.13,0,0,1,1.11-5.34c.7-2.18,1.5-4.38,2.41-6.62S138.55,103.2,139.22,101.69Z" transform="translate(-18.71 -78.83)"/><path class="cls-1" d="M138.19,114.74c-.29,0-.44-.1-.44-.3q0-1,2.46-6.78c1.45-3.46,2.51-5.92,3.16-7.36q1.33-3.06,1.85-4.61a3.11,3.11,0,0,0,.26-.94.56.56,0,0,0-.07-.26,2.05,2.05,0,0,1-.07-.54,1.34,1.34,0,0,1,.38-1,1.14,1.14,0,0,1,.84-.39,1,1,0,0,1,1.12,1.15,1.53,1.53,0,0,1-.29.93,31.77,31.77,0,0,0-1.51,3l-1.1,2.28q-2.46,5.17-3.52,7.73l-.35.84a2.13,2.13,0,0,0-.12.32.4.4,0,0,1,0,.13s.29-.32.82-1,1.33-1.46,2.16-2.26a15.57,15.57,0,0,1,2-1.7,2.71,2.71,0,0,1,1.47-.59,1.19,1.19,0,0,1,1.13.64,7.27,7.27,0,0,1,.49,1.89c.16,1.25.37,1.88.63,1.88a2.44,2.44,0,0,0,1.1-.63c1.68-1.29,2.6-2.35,2.77-3.19a1,1,0,0,1,1-.85,1,1,0,0,1,1,.87.79.79,0,0,1,0,.17c0,.36-.32.75-1,1.19q-.66.45-2,1.62a16.66,16.66,0,0,1-1.92,1.46,2.14,2.14,0,0,1-1.1.37,1.29,1.29,0,0,1-.49-.07c-.5-.18-.89-1-1.18-2.61-.15-1-.33-1.54-.53-1.54a.71.71,0,0,0-.26.09,17.47,17.47,0,0,0-4.2,3.87,32.58,32.58,0,0,0-3.47,4.83,10.74,10.74,0,0,1-.7,1.13A.42.42,0,0,1,138.19,114.74Z" transform="translate(-18.71 -78.83)"/><path class="cls-1" d="M152.68,113.69a1.32,1.32,0,0,1-1.25-.8,3.55,3.55,0,0,1-.35-1.48,11.1,11.1,0,0,1,1-4,9.71,9.71,0,0,1,2.68-4,2.16,2.16,0,0,1,1.4-.57,2,2,0,0,1,1.64,1,3.16,3.16,0,0,1,.52,1.36c.05.34.1.52.16.52a2.48,2.48,0,0,0,.52-.12c1.29-.41,2-.81,2.18-1.22a1.1,1.1,0,0,1,1-.73,1,1,0,0,1,.89.57,1.06,1.06,0,0,1,.09.42c0,.51-.34.85-1,1-.35.07-1.14.32-2.39.75a6.74,6.74,0,0,1-.78.21,3.3,3.3,0,0,0-.72.21,2,2,0,0,0-.21.58,11.94,11.94,0,0,1-.71,1.6,15,15,0,0,1-1.64,2.55Q153.85,113.69,152.68,113.69Zm0-1.1a1.33,1.33,0,0,0,.75-.33,9.13,9.13,0,0,0,1.95-2.19A14.33,14.33,0,0,0,157,107.2l.12-.36a3.31,3.31,0,0,1-1.78-.75.63.63,0,0,0-.43-.25c-.12,0-.33.21-.63.65a14.61,14.61,0,0,0-1.52,3,6.07,6.07,0,0,0-.47,2.22C152.28,112.28,152.43,112.59,152.72,112.59Zm4.5-7.25s.05,0,.05,0a.73.73,0,0,0-.21-.4c-.27-.3-.46-.45-.59-.45s-.09,0-.09.07c0,.24.16.46.49.66A.85.85,0,0,0,157.22,105.34Z" transform="translate(-18.71 -78.83)"/><path class="cls-1" d="M157.88,121.91a.94.94,0,0,1-.5-.16.93.93,0,0,1-.37-.37,1.82,1.82,0,0,1-.09-.66,12.41,12.41,0,0,1,.28-1.89c.19-1,.38-1.8.59-2.52l.18-.61q.92-3.51,2.25-7.31a6.21,6.21,0,0,0,.4-1.29,28.26,28.26,0,0,1,1.55-4l1.1-2.7a10.35,10.35,0,0,0,.56-1.52s0,0-.09,0a4.24,4.24,0,0,0-.66.12c-.84.17-1.8.4-2.88.7a7,7,0,0,0-2,.78.47.47,0,0,0-.23.42.75.75,0,0,1-.24.51,1.15,1.15,0,0,1-.89.42,1,1,0,0,1-.65-.25,1,1,0,0,1-.33-.82c0-.72.59-1.27,1.78-1.64a42.26,42.26,0,0,1,5.23-1.29c1-.22,1.61-.35,1.71-.4.31-.63.56-1.15.75-1.57a10,10,0,0,1,1.47-2.56.91.91,0,0,1,.59-.21c.58,0,.87.35.87,1.06l-.05.49c-.16,1-.6,1.51-1.34,1.57a.71.71,0,0,0-.38.12.9.9,0,0,0-.27.37c-.07.13-.11.22-.14.29a.34.34,0,0,0,0,.16s0,0,.07,0a14.58,14.58,0,0,0,1.66-.21l1.78-.26c.61-.08,2.07-.18,4.36-.3.77,0,1.36-.07,1.79-.07a1.88,1.88,0,0,1,.34,0,.88.88,0,0,1,.26.09,1.23,1.23,0,0,1,.44.41.91.91,0,0,1,.17.51,1,1,0,0,1-.36.84,1.4,1.4,0,0,1-.92.31,1.51,1.51,0,0,1-.61-.12,15.63,15.63,0,0,0-3.47-.35,37,37,0,0,0-4.08.28,8.87,8.87,0,0,0-2.23.4A18.55,18.55,0,0,0,164,101.1l-.54,1.29a13.94,13.94,0,0,0-.61,1.57c-.34.94-.62,1.67-.84,2.2q-1.38,3.75-2.28,7.11a25.6,25.6,0,0,0-1.07,5.93,2.46,2.46,0,0,0,.16.89,2.07,2.07,0,0,1,.16.75,1,1,0,0,1-.19.55,1.21,1.21,0,0,1-.47.41A1.16,1.16,0,0,1,157.88,121.91Z" transform="translate(-18.71 -78.83)"/><path class="cls-1" d="M169.79,112.09a1.71,1.71,0,0,1-1.46-.65,3.89,3.89,0,0,1-.4-2.11l0-1.06a4.87,4.87,0,0,0-.32-2.08,2.34,2.34,0,0,0-1.58-.94c-.91-.27-1.36-.76-1.36-1.48a2.88,2.88,0,0,1,.14-.82,2.73,2.73,0,0,1,.89-1.33,1.51,1.51,0,0,1,.89-.33,1,1,0,0,1,.35,0,1.38,1.38,0,0,1,.94,1.47,3,3,0,0,1-.14.94,5.14,5.14,0,0,0-.16.91.51.51,0,0,0,.32.47,2.12,2.12,0,0,1,.73,1.15,20,20,0,0,1,.12,2.2,8.72,8.72,0,0,0,.21,2.37.75.75,0,0,0,.75.38,4.06,4.06,0,0,0,2.18-1,19.29,19.29,0,0,0,3.42-3.32,7.12,7.12,0,0,0,1.62-3,2.76,2.76,0,0,1,.23-.75c.21-.46.48-.7.82-.7a.79.79,0,0,1,.35.09,1,1,0,0,1,.47.9s0,.19,0,.43a1.37,1.37,0,0,1-.59.83,3.77,3.77,0,0,0-.77.92,20.62,20.62,0,0,1-4.34,4.73C171.68,111.52,170.57,112.09,169.79,112.09Zm-4-8.13c.15,0,.35-.2.58-.61a2,2,0,0,0,.22-.72c0-.13,0-.19-.1-.19s-.23.09-.37.28a2.34,2.34,0,0,0-.32.57,1.58,1.58,0,0,0-.11.48C165.68,103.9,165.72,104,165.78,104Z" transform="translate(-18.71 -78.83)"/><path class="cls-1" d="M182.56,110.1a1.53,1.53,0,0,1-.68-.12,2,2,0,0,1-1-2,11.1,11.1,0,0,1,.46-2.79v0s0,0,0,0a7.67,7.67,0,0,0-.91.77c-1.33,1.19-2.35,1.78-3.05,1.78a.93.93,0,0,1-.89-.63,2,2,0,0,1-.12-.7,4,4,0,0,1,1-2.3,5,5,0,0,1,3.71-2,2,2,0,0,1,1.82.91.74.74,0,0,1,.1.43,1.87,1.87,0,0,1-.28,1.14,3.6,3.6,0,0,0-.52,1.11,8.86,8.86,0,0,0-.47,2.46,1.45,1.45,0,0,0,.33,1,.71.71,0,0,0,.56.29q1.11,0,4-2.25a9,9,0,0,0,1.48-1.4,1.81,1.81,0,0,0,.42-1.1.91.91,0,0,1,.28-.76.92.92,0,0,1,.54-.21.65.65,0,0,1,.64.44,1.79,1.79,0,0,1,.09.54,1.14,1.14,0,0,1-.47,1.06,6.73,6.73,0,0,0-1.12.89,32,32,0,0,1-2.84,2.21,8.6,8.6,0,0,1-2.11,1.16A2.91,2.91,0,0,1,182.56,110.1Zm-5.16-3.28c.35,0,1-.41,1.9-1.22a6.14,6.14,0,0,0,1.41-1.52,1.41,1.41,0,0,0,.07-.47.37.37,0,0,0-.42-.42,2.17,2.17,0,0,0-1.06.42,4.74,4.74,0,0,0-1.85,2.06,2.54,2.54,0,0,0-.26.89C177.19,106.73,177.26,106.82,177.4,106.82Z" transform="translate(-18.71 -78.83)"/></svg>